<svg width="18" height="18" viewBox="0 0 18 18" fill="none" xmlns="http://www.w3.org/2000/svg">
<path fill-rule="evenodd" clip-rule="evenodd" d="M8.70104 13.7C8.03828 13.7094 7.38027 13.5869 6.76525 13.3398C6.15022 13.0926 5.59045 12.7257 5.11846 12.2604C4.64647 11.795 4.27168 11.2405 4.01587 10.629C3.76005 10.0175 3.62832 9.36131 3.62832 8.69849C3.62832 8.03567 3.76005 7.37945 4.01587 6.76799C4.27168 6.15652 4.64647 5.60199 5.11846 5.13663C5.59045 4.67127 6.15022 4.30435 6.76525 4.05721C7.38027 3.81006 8.03828 3.68762 8.70104 3.69699C10.0277 3.69699 11.2999 4.22399 12.238 5.16204C13.176 6.1001 13.703 7.37238 13.703 8.69899C13.703 10.0256 13.176 11.2979 12.238 12.2359C11.2999 13.174 10.0277 13.701 8.70104 13.701V13.7ZM17.069 10.584C16.6764 10.4489 16.3357 10.1947 16.0945 9.85683C15.8532 9.51894 15.7233 9.11419 15.723 8.69899C15.723 7.82299 16.286 7.08599 17.068 6.81399C17.1835 6.77596 17.2801 6.69557 17.3386 6.58904C17.3971 6.48251 17.4129 6.35777 17.383 6.23999C17.1859 5.54432 16.9052 4.8751 16.547 4.24699C16.488 4.14748 16.3948 4.07284 16.2847 4.03696C16.1747 4.00109 16.0554 4.00643 15.949 4.05199C15.5391 4.21777 15.0863 4.24585 14.659 4.13199C14.3236 4.04234 14.0174 3.86638 13.7711 3.62163C13.5248 3.37688 13.3468 3.07188 13.255 2.73699C13.1383 2.30793 13.165 1.85249 13.331 1.43999C13.376 1.3336 13.3809 1.21451 13.3449 1.10476C13.3089 0.995012 13.2343 0.902022 13.135 0.842992C12.512 0.489892 11.849 0.212588 11.16 0.0169918C11.0424 -0.0132062 10.9176 0.00242535 10.8111 0.0607223C10.7045 0.119019 10.6241 0.215627 10.586 0.330992C10.451 0.723602 10.1968 1.06429 9.85888 1.30557C9.52099 1.54684 9.11623 1.67668 8.70104 1.67699C8.2861 1.67669 7.8816 1.54696 7.54389 1.30587C7.20618 1.06477 6.95209 0.724336 6.81704 0.331992C6.7786 0.216644 6.69798 0.120086 6.59135 0.0616697C6.48471 0.00325338 6.35994 -0.0127054 6.24204 0.0169918C5.53404 0.216992 4.86304 0.501992 4.23804 0.858992C4.14065 0.916057 4.06705 1.00627 4.03069 1.11313C3.99434 1.21999 3.99765 1.33637 4.04004 1.44099C4.18931 1.8048 4.22812 2.20452 4.15164 2.59025C4.07517 2.97599 3.88678 3.33066 3.61 3.61C3.33322 3.88934 2.9803 4.08098 2.59528 4.16101C2.21027 4.24104 1.81021 4.2059 1.44504 4.05999C1.33888 4.01557 1.22026 4.01093 1.11096 4.04694C1.00166 4.08294 0.909012 4.15717 0.85004 4.25599C0.49282 4.88456 0.213113 5.55411 0.0170405 6.24999C-0.0126514 6.36659 0.00252655 6.49008 0.0595684 6.59602C0.11661 6.70195 0.211356 6.7826 0.325041 6.82199C0.712065 6.96045 1.04688 7.21508 1.28369 7.55105C1.5205 7.88702 1.64775 8.28795 1.64804 8.69899C1.64804 9.56599 1.09604 10.298 0.32404 10.576C0.210648 10.6152 0.116085 10.6955 0.0590529 10.801C0.00202059 10.9066 -0.0133287 11.0297 0.0160405 11.146C0.192093 11.7669 0.43449 12.367 0.739041 12.936C0.798824 13.0417 0.896658 13.1206 1.0126 13.1566C1.12855 13.1927 1.25388 13.1831 1.36304 13.13C1.95804 12.857 2.70604 12.866 3.46704 13.368C3.58404 13.445 3.69204 13.553 3.76904 13.668C4.29604 14.468 4.28104 15.248 3.96704 15.856C3.90948 15.9623 3.89481 16.0866 3.92606 16.2034C3.9573 16.3202 4.03208 16.4206 4.13504 16.484C4.79699 16.8723 5.50614 17.1737 6.24504 17.381C6.36205 17.4113 6.48622 17.3958 6.59218 17.3377C6.69813 17.2795 6.77785 17.183 6.81504 17.068C6.94898 16.6739 7.20282 16.3316 7.54102 16.089C7.87921 15.8464 8.28482 15.7156 8.70104 15.715C9.57904 15.715 10.319 16.282 10.588 17.068C10.6254 17.1829 10.7052 17.2792 10.8111 17.3373C10.917 17.3955 11.041 17.4111 11.158 17.381C11.8872 17.1759 12.5875 16.8792 13.242 16.498C13.3456 16.4344 13.4207 16.3334 13.4518 16.2159C13.4829 16.0984 13.4676 15.9735 13.409 15.867C13.091 15.259 13.072 14.474 13.6 13.672C13.677 13.556 13.785 13.447 13.902 13.37C14.674 12.859 15.429 12.857 16.027 13.14C16.1362 13.1947 16.2621 13.2055 16.3789 13.1701C16.4957 13.1348 16.5945 13.056 16.655 12.95C16.962 12.3805 17.2061 11.7793 17.383 11.157C17.4132 11.0395 17.3975 10.9149 17.3392 10.8085C17.2809 10.7021 17.1843 10.6218 17.069 10.584Z" fill="#626F86"/>
</svg>
